<svg width="30" height="30" viewBox="0 0 30 30" fill="none" xmlns="http://www.w3.org/2000/svg">
  <path d="M16.25 26.25H11.25V11.25H16.25V13.75C16.7764 13.0803 17.4444 12.5355 18.2062 12.1545C18.968 11.7734 19.8047 11.5657 20.6562 11.5463C22.1455 11.5545 23.5707 12.153 24.6193 13.2105C25.6679 14.2681 26.2543 15.6982 26.25 17.1875V26.25H21.25V17.8125C21.1533 17.137 20.8158 16.5191 20.2997 16.0726C19.7837 15.6261 19.1237 15.381 18.4413 15.3825C18.1358 15.3922 17.8355 15.4634 17.5583 15.592C17.2811 15.7206 17.0327 15.9038 16.828 16.1308C16.6234 16.3577 16.4667 16.6237 16.3674 16.9126C16.2681 17.2016 16.2281 17.5077 16.25 17.8125V26.25ZM8.75 26.25H3.75V11.25H8.75V26.25ZM6.25 8.75C5.58696 8.75 4.95107 8.48661 4.48223 8.01777C4.01339 7.54893 3.75 6.91304 3.75 6.25C3.75 5.58696 4.01339 4.95107 4.48223 4.48223C4.95107 4.01339 5.58696 3.75 6.25 3.75C6.91304 3.75 7.54893 4.01339 8.01777 4.48223C8.48661 4.95107 8.75 5.58696 8.75 6.25C8.75 6.91304 8.48661 7.54893 8.01777 8.01777C7.54893 8.48661 6.91304 8.75 6.25 8.75Z" fill="#0066FF" />
</svg>