<svg width="636" height="246" viewBox="0 0 636 246" fill="none" xmlns="http://www.w3.org/2000/svg">
<g clip-path="url(#clip0_187_98394)">
<g filter="url(#filter0_dddddd_187_98394)">
<path d="M528.533 125.262C534.706 121.698 544.714 121.698 550.887 125.262L624.66 167.855C630.833 171.419 630.833 177.197 624.66 180.761L607.535 190.648C601.362 194.212 591.354 194.212 585.181 190.648L511.408 148.055C505.235 144.491 505.235 138.713 511.408 135.149L528.533 125.262Z" fill="white"/>
<path d="M511.408 148.055C507.819 145.983 506.317 143.162 506.901 140.464C507.322 142.406 508.824 144.286 511.408 145.778L585.181 188.371C591.354 191.935 601.362 191.935 607.535 188.371L624.66 178.483C627.244 176.992 628.746 175.112 629.167 173.169C629.752 175.868 628.249 178.689 624.66 180.761L607.535 190.648C601.362 194.212 591.354 194.212 585.181 190.648L511.408 148.055Z" fill="url(#paint0_linear_187_98394)"/>
<path d="M528.533 122.985C534.706 119.421 544.714 119.421 550.887 122.985L624.66 165.578C630.833 169.142 630.833 174.92 624.66 178.483L607.535 188.371C601.362 191.935 591.354 191.935 585.181 188.371L511.408 145.778C505.235 142.214 505.235 136.436 511.408 132.872L528.533 122.985Z" fill="url(#paint1_linear_187_98394)" fill-opacity="0.65"/>
<path d="M555.499 143.965L545.79 146.862L545.001 146.406L547.578 142.732L541.277 144.256L540.509 143.813L545.527 138.207L546.736 138.906L543.549 142.386C543.43 142.511 543.31 142.629 543.191 142.738C543.079 142.851 542.967 142.957 542.855 143.054C543.03 142.993 543.219 142.932 543.423 142.872C543.626 142.811 543.85 142.75 544.096 142.689L548.745 141.536L549.766 142.125L547.725 144.785C547.613 144.939 547.504 145.074 547.399 145.192C547.301 145.305 547.206 145.408 547.115 145.501C547.262 145.441 547.431 145.376 547.62 145.307C547.816 145.242 548.044 145.171 548.304 145.094L554.279 143.26L555.499 143.965Z" fill="#333333"/>
<path d="M557.677 147.215C558.175 147.502 558.459 147.783 558.529 148.059C558.599 148.334 558.515 148.601 558.277 148.86C558.045 149.124 557.719 149.377 557.299 149.62L553.932 151.563L552.849 150.938L556.141 149.037C556.408 148.883 556.611 148.725 556.752 148.563C556.892 148.401 556.937 148.237 556.888 148.071C556.839 147.905 556.653 147.741 556.331 147.579C556.05 147.417 555.742 147.308 555.405 147.251C555.068 147.194 554.739 147.186 554.416 147.227C554.094 147.267 553.813 147.356 553.575 147.494L550.23 149.425L549.146 148.8L556.93 144.306L558.014 144.931L554.879 146.741C555.307 146.688 555.78 146.698 556.299 146.771C556.825 146.84 557.284 146.988 557.677 147.215Z" fill="#333333"/>
<path d="M566.069 152.193L560.546 155.381L559.452 154.75L560.304 154.258C559.904 154.294 559.438 154.276 558.905 154.203C558.372 154.13 557.888 153.968 557.453 153.717C556.991 153.45 556.689 153.134 556.549 152.77C556.416 152.41 556.454 152.039 556.664 151.659C556.875 151.278 557.261 150.926 557.822 150.602C558.383 150.278 558.993 150.059 559.652 149.946C560.318 149.829 560.974 149.818 561.619 149.916C562.271 150.009 562.857 150.205 563.376 150.505C563.761 150.727 564.014 150.97 564.133 151.233C564.259 151.501 564.298 151.75 564.249 151.98L564.975 151.561L566.069 152.193ZM558.705 153.286C559.042 153.481 559.417 153.604 559.831 153.657C560.252 153.705 560.672 153.689 561.093 153.608C561.521 153.523 561.914 153.377 562.271 153.171C562.622 152.968 562.867 152.746 563.008 152.503C563.148 152.26 563.172 152.019 563.081 151.78C562.997 151.537 562.787 151.318 562.45 151.124C562.127 150.938 561.759 150.818 561.346 150.766C560.932 150.713 560.515 150.727 560.094 150.808C559.673 150.889 559.284 151.033 558.926 151.24C558.568 151.446 558.316 151.673 558.169 151.92C558.028 152.163 558 152.406 558.085 152.649C558.176 152.887 558.383 153.1 558.705 153.286Z" fill="#333333"/>
<path d="M563.826 157.275L562.743 156.65L567.213 154.069L566.067 153.407L567.119 152.799L568.265 153.461L569.675 152.647L570.758 153.273L569.349 154.087L570.632 154.828L569.58 155.435L568.297 154.694L563.826 157.275Z" fill="#333333"/>
<path d="M573.56 158.194C573.56 157.967 573.497 157.745 573.37 157.526C573.251 157.312 573.086 157.144 572.876 157.022C572.729 156.937 572.564 156.862 572.382 156.797C572.206 156.737 572.02 156.706 571.824 156.706C571.635 156.702 571.449 156.753 571.267 156.858C571.021 157.008 570.954 157.176 571.067 157.362C571.186 157.552 571.368 157.767 571.614 158.006C571.824 158.216 572.006 158.435 572.161 158.662C572.322 158.885 572.378 159.111 572.329 159.342C572.294 159.573 572.077 159.804 571.677 160.034C571.333 160.233 570.94 160.346 570.499 160.375C570.064 160.407 569.626 160.372 569.184 160.271C568.756 160.17 568.374 160.022 568.037 159.828C567.637 159.597 567.311 159.328 567.059 159.02C566.82 158.712 566.74 158.378 566.817 158.018L568.184 158.079C568.156 158.314 568.198 158.536 568.311 158.747C568.437 158.957 568.675 159.164 569.026 159.366C569.159 159.443 569.313 159.508 569.489 159.561C569.671 159.609 569.857 159.632 570.046 159.628C570.25 159.623 570.439 159.571 570.614 159.47C570.783 159.372 570.86 159.267 570.846 159.154C570.846 159.04 570.79 158.919 570.677 158.789C570.572 158.656 570.443 158.516 570.288 158.37C570.071 158.148 569.874 157.917 569.699 157.678C569.538 157.439 569.471 157.198 569.499 156.955C569.541 156.712 569.759 156.478 570.151 156.251C570.481 156.06 570.853 155.951 571.267 155.923C571.694 155.894 572.122 155.931 572.55 156.032C572.985 156.129 573.374 156.277 573.718 156.475C574.047 156.666 574.335 156.913 574.58 157.216C574.826 157.52 574.92 157.834 574.864 158.158L573.56 158.194Z" fill="#333333"/>
<path d="M576.468 164.574L577.605 163.117L574.522 161.337L571.998 161.993L570.841 161.325L581.055 158.72L582.212 159.388L577.678 165.273L576.468 164.574ZM578.067 160.42L576.037 160.949L578.288 162.248L579.224 161.04C579.379 160.845 579.551 160.641 579.74 160.426C579.936 160.208 580.133 159.989 580.329 159.77C579.936 159.884 579.544 159.997 579.151 160.11C578.765 160.228 578.404 160.331 578.067 160.42Z" fill="#333333"/>
<path d="M587.2 164.284C587.691 164.567 588.007 164.891 588.147 165.256C588.301 165.62 588.277 165.991 588.073 166.367C587.87 166.744 587.488 167.094 586.927 167.418C586.373 167.738 585.766 167.958 585.107 168.08C584.455 168.197 583.813 168.215 583.182 168.134C582.551 168.053 581.997 167.875 581.52 167.6C581.127 167.373 580.853 167.118 580.699 166.835C580.552 166.555 580.496 166.3 580.531 166.069L577.48 167.831L576.386 167.199L584.234 162.668L585.328 163.3L584.518 163.768C584.91 163.727 585.359 163.747 585.864 163.828C586.369 163.909 586.814 164.061 587.2 164.284ZM586.053 164.776C585.724 164.586 585.349 164.462 584.928 164.405C584.514 164.353 584.093 164.365 583.666 164.442C583.252 164.519 582.866 164.66 582.509 164.867C582.158 165.069 581.912 165.292 581.772 165.535C581.639 165.782 581.614 166.027 581.699 166.27C581.797 166.513 582.011 166.729 582.34 166.92C582.67 167.11 583.041 167.232 583.455 167.284C583.876 167.333 584.297 167.317 584.718 167.236C585.145 167.159 585.535 167.019 585.885 166.816C586.243 166.61 586.485 166.385 586.611 166.142C586.751 165.899 586.776 165.659 586.685 165.42C586.593 165.181 586.383 164.966 586.053 164.776Z" fill="#333333"/>
<path d="M593.836 168.115C594.327 168.399 594.643 168.723 594.783 169.087C594.937 169.451 594.913 169.822 594.709 170.198C594.506 170.575 594.124 170.925 593.563 171.249C593.009 171.569 592.402 171.79 591.743 171.911C591.091 172.029 590.449 172.047 589.818 171.966C589.187 171.885 588.633 171.707 588.156 171.431C587.763 171.205 587.49 170.95 587.335 170.666C587.188 170.387 587.132 170.132 587.167 169.901L584.116 171.662L583.022 171.03L590.87 166.5L591.964 167.131L591.154 167.599C591.547 167.559 591.995 167.579 592.5 167.66C593.005 167.741 593.451 167.893 593.836 168.115ZM592.69 168.607C592.36 168.417 591.985 168.293 591.564 168.237C591.15 168.184 590.73 168.196 590.302 168.273C589.888 168.35 589.502 168.492 589.145 168.698C588.794 168.901 588.549 169.123 588.408 169.366C588.275 169.613 588.251 169.858 588.335 170.101C588.433 170.344 588.647 170.561 588.976 170.751C589.306 170.941 589.678 171.063 590.091 171.116C590.512 171.164 590.933 171.148 591.354 171.067C591.781 170.99 592.171 170.85 592.521 170.648C592.879 170.441 593.121 170.217 593.247 169.974C593.387 169.731 593.412 169.49 593.321 169.251C593.23 169.012 593.019 168.798 592.69 168.607Z" fill="#333333"/>
</g>
<g filter="url(#filter1_dddddd_187_98394)">
<path d="M463.398 162.765C469.571 159.201 479.578 159.201 485.751 162.765L559.525 205.358C565.697 208.922 565.697 214.7 559.525 218.263L542.399 228.151C536.227 231.715 526.219 231.715 520.046 228.151L446.272 185.558C440.1 181.994 440.1 176.216 446.272 172.652L463.398 162.765Z" fill="white"/>
<path d="M446.272 185.558C442.683 183.485 441.181 180.665 441.766 177.966C442.186 179.909 443.689 181.788 446.272 183.28L520.046 225.873C526.219 229.437 536.227 229.437 542.399 225.873L559.525 215.986C562.108 214.494 563.611 212.615 564.031 210.672C564.616 213.371 563.114 216.191 559.525 218.263L542.399 228.151C536.227 231.715 526.219 231.715 520.046 228.151L446.272 185.558Z" fill="url(#paint2_linear_187_98394)"/>
<path d="M463.398 160.487C469.571 156.923 479.578 156.923 485.751 160.487L559.525 203.08C565.697 206.644 565.697 212.422 559.525 215.986L542.399 225.873C536.227 229.437 526.219 229.437 520.046 225.873L446.272 183.28C440.1 179.716 440.1 173.938 446.272 170.374L463.398 160.487Z" fill="url(#paint3_linear_187_98394)" fill-opacity="0.65"/>
<path d="M493.64 183.359L498.279 186.038L497.185 186.669L493.683 184.647L491.736 185.771L494.661 187.459L493.567 188.091L490.642 186.402L488.507 187.635L492.01 189.657L490.916 190.289L486.277 187.611L493.64 183.359Z" fill="#333333"/>
<path d="M500.891 189.562C501.347 189.825 501.606 190.096 501.669 190.376C501.739 190.651 501.655 190.926 501.417 191.202C501.69 191.157 502.009 191.139 502.374 191.147C502.746 191.151 503.117 191.191 503.489 191.268C503.861 191.345 504.19 191.467 504.478 191.633C504.955 191.908 505.221 192.183 505.277 192.459C505.341 192.73 505.249 192.997 505.004 193.26C504.772 193.524 504.443 193.779 504.015 194.026L500.702 195.939L499.608 195.307L502.858 193.43C503.265 193.196 503.517 192.961 503.615 192.726C503.714 192.491 503.549 192.25 503.121 192.003C502.714 191.768 502.248 191.649 501.722 191.645C501.21 191.641 500.772 191.744 500.407 191.955L497.104 193.862L496.01 193.23L499.281 191.341C499.674 191.115 499.913 190.88 499.997 190.637C500.081 190.394 499.93 190.161 499.544 189.938C499.278 189.785 498.98 189.681 498.65 189.629C498.321 189.576 497.998 189.572 497.683 189.616C497.374 189.657 497.1 189.746 496.862 189.884L493.538 191.803L492.444 191.171L497.967 187.983L499.061 188.614L498.177 189.125C498.598 189.076 499.057 189.082 499.555 189.143C500.067 189.204 500.512 189.343 500.891 189.562Z" fill="#333333"/>
<path d="M512.819 196.558L507.296 199.746L506.202 199.114L507.054 198.623C506.654 198.659 506.188 198.641 505.655 198.568C505.122 198.495 504.638 198.333 504.203 198.082C503.741 197.815 503.439 197.499 503.299 197.135C503.165 196.774 503.204 196.404 503.414 196.023C503.625 195.643 504.011 195.29 504.572 194.966C505.133 194.643 505.743 194.424 506.402 194.31C507.068 194.193 507.724 194.183 508.369 194.28C509.021 194.373 509.607 194.57 510.126 194.869C510.511 195.092 510.764 195.335 510.883 195.598C511.009 195.865 511.048 196.114 510.999 196.345L511.725 195.926L512.819 196.558ZM505.455 197.651C505.792 197.845 506.167 197.969 506.581 198.021C507.001 198.07 507.422 198.054 507.843 197.973C508.271 197.888 508.664 197.742 509.021 197.535C509.372 197.333 509.617 197.11 509.758 196.867C509.898 196.624 509.922 196.384 509.831 196.145C509.747 195.902 509.537 195.683 509.2 195.489C508.877 195.302 508.509 195.183 508.095 195.13C507.682 195.078 507.264 195.092 506.844 195.173C506.423 195.254 506.034 195.398 505.676 195.604C505.318 195.811 505.066 196.037 504.919 196.284C504.778 196.527 504.75 196.77 504.835 197.013C504.926 197.252 505.133 197.465 505.455 197.651Z" fill="#333333"/>
<path d="M516.256 197.158C516.011 197.016 515.892 196.874 515.899 196.733C515.906 196.591 516.011 196.461 516.214 196.344C516.39 196.243 516.607 196.186 516.867 196.174C517.126 196.162 517.378 196.226 517.624 196.368C517.869 196.51 517.989 196.652 517.982 196.793C517.975 196.935 517.869 197.065 517.666 197.182C517.491 197.283 517.273 197.34 517.014 197.352C516.754 197.364 516.502 197.299 516.256 197.158ZM510.092 201.36L509.009 200.735L514.531 197.546L515.615 198.172L510.092 201.36Z" fill="#333333"/>
<path d="M511.737 202.31L519.521 197.816L520.604 198.441L512.82 202.935L511.737 202.31Z" fill="#333333"/>
</g>
<g filter="url(#filter2_bdddddddd_187_98394)">
<rect width="165.902" height="99.4055" rx="12.9057" transform="matrix(0.866025 0.5 -0.866025 0.5 390.088 0)" fill="url(#paint4_linear_187_98394)" fill-opacity="0.65" shape-rendering="crispEdges"/>
<rect x="1.35748e-08" y="-0.227747" width="166.357" height="99.861" rx="13.1334" transform="matrix(0.866025 0.5 -0.866025 0.5 389.89 -0.113874)" stroke="#EBEEF5" stroke-width="0.455495" shape-rendering="crispEdges"/>
</g>
<path d="M366.855 31.8603L371.494 34.5386L370.4 35.1702L366.897 33.1478L364.951 34.2714L367.875 35.9598L366.781 36.5914L363.857 34.903L361.721 36.1359L365.224 38.1583L364.13 38.7899L359.491 36.1116L366.855 31.8603ZM367.951 38.1416L369.024 37.5222L372.054 39.2713L370.981 39.8907L367.951 38.1416ZM378.245 40.4528C378.701 40.716 378.96 40.9873 379.023 41.2667C379.093 41.542 379.009 41.8173 378.771 42.0926C379.044 42.0481 379.363 42.0299 379.728 42.038C380.1 42.042 380.471 42.0825 380.843 42.1594C381.215 42.2364 381.544 42.3578 381.832 42.5238C382.309 42.7991 382.575 43.0745 382.631 43.3498C382.695 43.6211 382.603 43.8883 382.358 44.1515C382.126 44.4146 381.797 44.6697 381.369 44.9167L378.056 46.8298L376.962 46.1982L380.212 44.3215C380.619 44.0867 380.871 43.8518 380.969 43.617C381.068 43.3822 380.903 43.1413 380.475 42.8943C380.068 42.6595 379.602 42.54 379.076 42.536C378.564 42.5319 378.126 42.6352 377.761 42.8457L374.458 44.7527L373.364 44.1211L376.635 42.2323C377.028 42.0056 377.267 41.7707 377.351 41.5278C377.435 41.2849 377.284 41.0521 376.898 40.8294C376.632 40.6755 376.334 40.5723 376.004 40.5196C375.675 40.467 375.352 40.463 375.037 40.5075C374.728 40.548 374.454 40.6371 374.216 40.7747L370.892 42.6939L369.798 42.0623L375.321 38.8738L376.415 39.5054L375.531 40.0156C375.952 39.967 376.411 39.9731 376.909 40.0338C377.421 40.0945 377.866 40.2342 378.245 40.4528ZM390.173 47.4486L384.65 50.6371L383.556 50.0055L384.408 49.5135C384.008 49.55 383.542 49.5318 383.009 49.4589C382.476 49.386 381.992 49.224 381.557 48.973C381.095 48.7058 380.793 48.39 380.653 48.0256C380.519 47.6652 380.558 47.2948 380.768 46.9142C380.979 46.5336 381.365 46.1813 381.926 45.8574C382.487 45.5335 383.097 45.3149 383.756 45.2015C384.422 45.0841 385.078 45.074 385.723 45.1712C386.375 45.2643 386.961 45.4606 387.48 45.7603C387.865 45.9829 388.118 46.2259 388.237 46.4891C388.363 46.7563 388.402 47.0053 388.353 47.2361L389.079 46.817L390.173 47.4486ZM382.809 48.5418C383.146 48.7362 383.521 48.8596 383.935 48.9123C384.355 48.9609 384.776 48.9447 385.197 48.8637C385.625 48.7787 386.017 48.6329 386.375 48.4264C386.726 48.224 386.971 48.0013 387.111 47.7584C387.252 47.5154 387.276 47.2745 387.185 47.0356C387.101 46.7927 386.891 46.5741 386.554 46.3797C386.231 46.1935 385.863 46.074 385.449 46.0214C385.036 45.9688 384.618 45.9829 384.198 46.0639C383.777 46.1449 383.388 46.2886 383.03 46.4951C382.672 46.7016 382.42 46.9283 382.273 47.1753C382.132 47.4183 382.104 47.6612 382.189 47.9041C382.28 48.143 382.487 48.3556 382.809 48.5418ZM393.61 48.0487C393.365 47.907 393.246 47.7653 393.253 47.6236C393.26 47.4819 393.365 47.3523 393.568 47.2349C393.744 47.1337 393.961 47.077 394.221 47.0649C394.48 47.0527 394.732 47.1175 394.978 47.2592C395.223 47.4009 395.343 47.5426 395.336 47.6843C395.329 47.8261 395.223 47.9556 395.02 48.073C394.845 48.1743 394.627 48.2309 394.368 48.2431C394.108 48.2552 393.856 48.1904 393.61 48.0487ZM387.446 52.2514L386.363 51.6259L391.885 48.4374L392.969 49.063L387.446 52.2514ZM389.091 53.2008L396.875 48.7066L397.958 49.3321L390.174 53.8264L389.091 53.2008ZM403.421 52.9717L401.906 56.6278L408.28 55.7775L409.332 56.3849L401.969 60.6361L400.833 59.9802L403.852 58.2372C404.294 57.9821 404.718 57.7453 405.125 57.5266C405.545 57.308 405.973 57.0975 406.408 56.895L400.896 57.5752L400.202 57.1744L401.422 54.0284C401.071 54.2795 400.707 54.5224 400.328 54.7572C399.949 54.9921 399.539 55.237 399.097 55.4921L396.078 57.2351L394.942 56.5792L402.305 52.3279L403.421 52.9717ZM409.23 63.9902L409.219 63.9841C408.778 63.98 408.276 63.9132 407.715 63.7837C407.154 63.6541 406.66 63.4658 406.232 63.2189C405.657 62.8868 405.268 62.5245 405.064 62.1317C404.875 61.739 404.868 61.3503 405.043 60.9657C405.226 60.577 405.587 60.2268 406.127 59.915C406.744 59.5587 407.399 59.3299 408.094 59.2287C408.795 59.1234 409.475 59.1275 410.134 59.2409C410.801 59.3502 411.386 59.5506 411.891 59.8421C412.354 60.1093 412.659 60.4191 412.806 60.7713C412.961 61.1195 412.95 61.4738 412.775 61.8341C412.599 62.1945 412.245 62.5285 411.712 62.8362L411.239 63.0974L407.01 60.6559C406.575 60.9798 406.383 61.326 406.432 61.6945C406.495 62.0629 406.793 62.401 407.326 62.7087C407.712 62.9314 408.094 63.0711 408.472 63.1278C408.858 63.1804 409.195 63.2128 409.482 63.2249L409.23 63.9902ZM410.892 60.4191C410.478 60.1802 410.019 60.0284 409.514 59.9636C409.016 59.8948 408.483 59.9676 407.915 60.1822L411.008 61.9678L411.081 61.9252C411.299 61.7754 411.428 61.6074 411.47 61.4212C411.52 61.239 411.491 61.0608 411.386 60.8867C411.288 60.7086 411.123 60.5527 410.892 60.4191ZM417.182 64.7186C417.182 64.4918 417.119 64.2691 416.992 64.0505C416.873 63.8359 416.708 63.6679 416.498 63.5464C416.351 63.4614 416.186 63.3865 416.004 63.3217C415.828 63.261 415.642 63.2306 415.446 63.2306C415.257 63.2266 415.071 63.2772 414.889 63.3824C414.643 63.5323 414.576 63.7003 414.689 63.8865C414.808 64.0768 414.99 64.2914 415.236 64.5303C415.446 64.7408 415.628 64.9595 415.783 65.1862C415.944 65.4089 416 65.6356 415.951 65.8664C415.916 66.0972 415.698 66.328 415.299 66.5588C414.955 66.7572 414.562 66.8705 414.121 66.8989C413.686 66.9313 413.248 66.8968 412.806 66.7956C412.378 66.6944 411.996 66.5466 411.659 66.3523C411.259 66.1215 410.933 65.8522 410.681 65.5445C410.442 65.2368 410.362 64.9028 410.439 64.5424L411.806 64.6032C411.778 64.838 411.82 65.0607 411.933 65.2712C412.059 65.4818 412.297 65.6883 412.648 65.8907C412.781 65.9676 412.935 66.0324 413.111 66.0851C413.293 66.1336 413.479 66.1559 413.668 66.1519C413.872 66.1478 414.061 66.0952 414.236 65.994C414.405 65.8968 414.482 65.7915 414.468 65.6781C414.468 65.5648 414.412 65.4433 414.299 65.3137C414.194 65.1801 414.065 65.0405 413.91 64.8947C413.693 64.672 413.496 64.4412 413.321 64.2023C413.16 63.9635 413.093 63.7226 413.121 63.4796C413.163 63.2367 413.381 63.0019 413.773 62.7751C414.103 62.5848 414.475 62.4755 414.889 62.4472C415.316 62.4188 415.744 62.4553 416.172 62.5565C416.607 62.6537 416.996 62.8014 417.339 62.9998C417.669 63.1901 417.957 63.4371 418.202 63.7408C418.448 64.0444 418.542 64.3582 418.486 64.6821L417.182 64.7186ZM422.215 67.6247C422.215 67.398 422.152 67.1753 422.026 66.9567C421.907 66.7421 421.742 66.574 421.532 66.4526C421.384 66.3676 421.219 66.2926 421.037 66.2279C420.862 66.1671 420.676 66.1368 420.48 66.1368C420.29 66.1327 420.104 66.1833 419.922 66.2886C419.677 66.4384 419.61 66.6064 419.722 66.7927C419.841 66.983 420.024 67.1976 420.269 67.4364C420.48 67.647 420.662 67.8656 420.816 68.0924C420.978 68.315 421.034 68.5418 420.985 68.7726C420.949 69.0033 420.732 69.2341 420.332 69.4649C419.989 69.6633 419.596 69.7767 419.154 69.805C418.719 69.8374 418.281 69.803 417.839 69.7018C417.412 69.6006 417.029 69.4528 416.693 69.2584C416.293 69.0276 415.967 68.7584 415.714 68.4507C415.476 68.143 415.395 67.8089 415.472 67.4486L416.84 67.5093C416.812 67.7442 416.854 67.9668 416.966 68.1774C417.092 68.3879 417.331 68.5944 417.682 68.7969C417.815 68.8738 417.969 68.9386 418.144 68.9912C418.327 69.0398 418.513 69.0621 418.702 69.058C418.905 69.054 419.095 69.0013 419.27 68.9001C419.438 68.8029 419.515 68.6977 419.501 68.5843C419.501 68.4709 419.445 68.3495 419.333 68.2199C419.228 68.0863 419.098 67.9466 418.944 67.8008C418.726 67.5782 418.53 67.3474 418.355 67.1085C418.193 66.8696 418.127 66.6287 418.155 66.3858C418.197 66.1428 418.414 65.908 418.807 65.6813C419.137 65.491 419.508 65.3817 419.922 65.3533C420.35 65.325 420.778 65.3614 421.205 65.4626C421.64 65.5598 422.029 65.7076 422.373 65.906C422.703 66.0963 422.99 66.3433 423.236 66.6469C423.481 66.9506 423.576 67.2644 423.52 67.5883L422.215 67.6247ZM430.657 70.8224L425.135 74.0109L424.041 73.3792L424.893 72.8873C424.493 72.9237 424.027 72.9055 423.494 72.8326C422.961 72.7598 422.477 72.5978 422.042 72.3468C421.579 72.0796 421.278 71.7637 421.137 71.3993C421.004 71.039 421.043 70.6685 421.253 70.2879C421.463 69.9073 421.849 69.5551 422.41 69.2312C422.971 68.9073 423.581 68.6886 424.24 68.5753C424.907 68.4579 425.562 68.4477 426.208 68.5449C426.86 68.638 427.445 68.8344 427.964 69.134C428.35 69.3567 428.602 69.5996 428.722 69.8628C428.848 70.13 428.886 70.379 428.837 70.6098L429.563 70.1908L430.657 70.8224ZM423.294 71.9156C423.63 72.1099 424.005 72.2334 424.419 72.286C424.84 72.3346 425.261 72.3184 425.682 72.2375C426.109 72.1524 426.502 72.0067 426.86 71.8002C427.21 71.5977 427.456 71.3751 427.596 71.1321C427.736 70.8892 427.761 70.6483 427.67 70.4094C427.586 70.1665 427.375 69.9478 427.039 69.7535C426.716 69.5672 426.348 69.4478 425.934 69.3952C425.52 69.3425 425.103 69.3567 424.682 69.4377C424.261 69.5187 423.872 69.6624 423.515 69.8689C423.157 70.0754 422.904 70.3021 422.757 70.5491C422.617 70.792 422.589 71.035 422.673 71.2779C422.764 71.5168 422.971 71.7293 423.294 71.9156ZM426.49 75.8499C426.539 76.0645 426.672 76.2912 426.889 76.5301C427.107 76.769 427.366 76.9755 427.668 77.1496C428.236 77.4775 428.811 77.6476 429.393 77.6597C429.968 77.6759 430.532 77.5241 431.086 77.2042L431.76 76.8156C431.493 76.856 431.192 76.8682 430.855 76.852C430.525 76.8318 430.189 76.7791 429.845 76.6941C429.509 76.605 429.207 76.4836 428.941 76.3297C428.429 76.0341 428.088 75.6961 427.92 75.3155C427.752 74.9349 427.762 74.5482 427.952 74.1555C428.148 73.7668 428.523 73.4125 429.077 73.0926C429.638 72.7687 430.252 72.5521 430.918 72.4428C431.591 72.3294 432.254 72.3193 432.906 72.4124C433.565 72.5096 434.148 72.704 434.652 72.9955C435.073 73.2384 435.35 73.5077 435.483 73.8032C435.631 74.0988 435.68 74.3579 435.631 74.5806L436.399 74.1373L437.482 74.7628L432.296 77.7569C431.637 78.1375 430.974 78.3663 430.308 78.4432C429.642 78.5282 429 78.4979 428.383 78.3521C427.766 78.2144 427.205 77.9998 426.7 77.7083C426.307 77.4816 425.978 77.2184 425.711 76.9188C425.445 76.6273 425.29 76.356 425.248 76.105L426.49 75.8499ZM433.811 73.6514C433.474 73.457 433.089 73.3315 432.654 73.2748C432.233 73.2182 431.802 73.2283 431.36 73.3052C430.932 73.3821 430.539 73.5239 430.182 73.7303C429.824 73.9368 429.579 74.1636 429.445 74.4105C429.319 74.6616 429.302 74.9106 429.393 75.1576C429.498 75.4045 429.719 75.6252 430.056 75.8195C430.406 76.022 430.792 76.1516 431.213 76.2082C431.64 76.269 432.068 76.2609 432.496 76.1839C432.931 76.103 433.327 75.9592 433.685 75.7527C434.049 75.5422 434.298 75.3134 434.432 75.0665C434.565 74.8195 434.579 74.5725 434.474 74.3255C434.382 74.0785 434.162 73.8538 433.811 73.6514ZM440.926 75.3666C440.681 75.2249 440.562 75.0831 440.569 74.9414C440.576 74.7997 440.681 74.6702 440.884 74.5527C441.059 74.4515 441.277 74.3948 441.536 74.3827C441.796 74.3705 442.048 74.4353 442.294 74.577C442.539 74.7187 442.658 74.8605 442.651 75.0022C442.644 75.1439 442.539 75.2734 442.336 75.3909C442.161 75.4921 441.943 75.5488 441.684 75.5609C441.424 75.5731 441.172 75.5083 440.926 75.3666ZM434.762 79.5693L433.679 78.9437L439.201 75.7553L440.285 76.3808L434.762 79.5693ZM444.937 78.9335C445.435 79.221 445.719 79.5024 445.789 79.7777C445.86 80.053 445.775 80.3202 445.537 80.5794C445.306 80.8425 444.98 81.0956 444.559 81.3385L441.193 83.282L440.109 82.6564L443.402 80.7555C443.668 80.6016 443.871 80.4437 444.012 80.2818C444.152 80.1198 444.198 79.9558 444.148 79.7898C444.099 79.6238 443.914 79.4599 443.591 79.2979C443.31 79.136 443.002 79.0266 442.665 78.97C442.329 78.9133 441.999 78.9052 441.676 78.9457C441.354 78.9862 441.073 79.0752 440.835 79.2129L437.49 81.1442L436.406 80.5186L441.929 77.3302L443.012 77.9557L442.139 78.4598C442.567 78.4072 443.04 78.4173 443.559 78.4902C444.085 78.559 444.545 78.7068 444.937 78.9335ZM442.505 85.0962C442.554 85.3108 442.687 85.5375 442.904 85.7764C443.122 86.0153 443.381 86.2218 443.683 86.3959C444.251 86.7239 444.826 86.8939 445.408 86.9061C445.983 86.9222 446.548 86.7704 447.102 86.4506L447.775 86.0619C447.508 86.1024 447.207 86.1145 446.87 86.0983C446.54 86.0781 446.204 86.0254 445.86 85.9404C445.524 85.8513 445.222 85.7299 444.956 85.576C444.444 85.2804 444.104 84.9424 443.935 84.5618C443.767 84.1812 443.777 83.7945 443.967 83.4018C444.163 83.0131 444.538 82.6588 445.092 82.339C445.653 82.015 446.267 81.7984 446.933 81.6891C447.606 81.5758 448.269 81.5656 448.921 81.6588C449.581 81.7559 450.163 81.9503 450.668 82.2418C451.088 82.4847 451.365 82.754 451.499 83.0495C451.646 83.3451 451.695 83.6042 451.646 83.8269L452.414 83.3836L453.497 84.0091L448.311 87.0032C447.652 87.3838 446.989 87.6126 446.323 87.6895C445.657 87.7745 445.015 87.7442 444.398 87.5984C443.781 87.4607 443.22 87.2462 442.715 86.9546C442.322 86.7279 441.993 86.4647 441.726 86.1651C441.46 85.8736 441.305 85.6023 441.263 85.3513L442.505 85.0962ZM449.826 82.8977C449.489 82.7034 449.104 82.5778 448.669 82.5212C448.248 82.4645 447.817 82.4746 447.375 82.5515C446.947 82.6284 446.555 82.7702 446.197 82.9766C445.839 83.1831 445.594 83.4099 445.461 83.6569C445.334 83.9079 445.317 84.1569 445.408 84.4039C445.513 84.6508 445.734 84.8715 446.071 85.0659C446.421 85.2683 446.807 85.3979 447.228 85.4545C447.656 85.5153 448.083 85.5072 448.511 85.4302C448.946 85.3493 449.342 85.2055 449.7 84.999C450.064 84.7885 450.313 84.5597 450.447 84.3128C450.58 84.0658 450.594 83.8188 450.489 83.5718C450.398 83.3249 450.177 83.1001 449.826 82.8977Z" fill="#333333"/>
<path d="M385.346 21.4139C385.22 21.8188 385.195 22.1772 385.272 22.4889C385.363 22.8007 385.658 23.1003 386.156 23.3878C386.394 23.5254 386.661 23.6347 386.955 23.7157C387.25 23.7967 387.541 23.8352 387.828 23.8311C388.116 23.8271 388.361 23.7663 388.565 23.6489C388.915 23.4465 389.038 23.2015 388.933 22.914C388.835 22.6306 388.568 22.3027 388.133 21.9302C387.586 21.4524 387.281 20.9969 387.218 20.5637C387.162 20.1264 387.464 19.7175 388.123 19.3369C388.544 19.094 389.024 18.9502 389.564 18.9057C390.111 18.8652 390.661 18.9077 391.215 19.0332C391.769 19.1587 392.271 19.3511 392.72 19.6102C393.302 19.9462 393.691 20.3005 393.887 20.673C394.084 21.0455 394.094 21.42 393.919 21.7966L392.33 21.7905C392.457 21.499 392.474 21.2135 392.383 20.9342C392.292 20.6548 392.053 20.4038 391.668 20.1811C391.282 19.9584 390.865 19.8228 390.416 19.7742C389.981 19.7256 389.606 19.7924 389.29 19.9746C388.933 20.1811 388.807 20.4119 388.912 20.6669C389.031 20.922 389.269 21.2095 389.627 21.5293C389.957 21.8168 390.22 22.1184 390.416 22.4343C390.612 22.7501 390.686 23.0558 390.637 23.3513C390.602 23.6469 390.388 23.908 389.995 24.1348C389.294 24.5397 388.498 24.7239 387.607 24.6874C386.717 24.651 385.854 24.3919 385.02 23.9101C384.452 23.5821 384.045 23.2177 383.799 22.8169C383.561 22.4201 383.519 21.9747 383.673 21.4808L385.346 21.4139ZM394.613 28.4894L394.603 28.4834C394.161 28.4793 393.66 28.4125 393.099 28.283C392.538 28.1534 392.043 27.9651 391.615 27.7181C391.04 27.3861 390.651 27.0238 390.448 26.631C390.258 26.2383 390.251 25.8496 390.427 25.465C390.609 25.0763 390.97 24.726 391.51 24.4143C392.127 24.058 392.783 23.8292 393.477 23.728C394.179 23.6227 394.859 23.6268 395.518 23.7402C396.184 23.8495 396.77 24.0499 397.275 24.3414C397.738 24.6086 398.043 24.9184 398.19 25.2706C398.344 25.6188 398.334 25.9731 398.158 26.3334C397.983 26.6938 397.629 27.0278 397.096 27.3355L396.623 27.5967L392.394 25.1552C391.959 25.4791 391.766 25.8253 391.815 26.1937C391.878 26.5622 392.176 26.9003 392.709 27.208C393.095 27.4307 393.477 27.5704 393.856 27.627C394.242 27.6797 394.578 27.7121 394.866 27.7242L394.613 28.4894ZM396.275 24.9184C395.862 24.6795 395.402 24.5277 394.897 24.4629C394.4 24.394 393.867 24.4669 393.299 24.6815L396.391 26.467L396.465 26.4245C396.682 26.2747 396.812 26.1067 396.854 25.9205C396.903 25.7383 396.875 25.5601 396.77 25.386C396.672 25.2079 396.507 25.052 396.275 24.9184ZM402.755 28.9992C402.72 28.9385 402.66 28.8717 402.576 28.7988C402.506 28.7259 402.414 28.6571 402.302 28.5923C402.078 28.4627 401.797 28.3696 401.461 28.3129C401.131 28.2522 400.784 28.2421 400.419 28.2826C400.069 28.3231 399.746 28.4283 399.452 28.5984L396.401 30.3596L395.307 29.728L400.83 26.5395L401.924 27.1712L400.882 27.7724C401.373 27.6671 401.882 27.6408 402.407 27.6935C402.94 27.7501 403.379 27.8777 403.722 28.0761C403.982 28.2259 404.147 28.3615 404.217 28.483L402.755 28.9992ZM406.238 29.662L403.903 32.8686L409.52 31.5568L410.635 32.2006L402.661 33.974L401.883 33.5246L405.07 28.9878L406.238 29.662ZM413.551 32.4996C413.306 32.3579 413.187 32.2162 413.194 32.0745C413.201 31.9328 413.306 31.8032 413.509 31.6858C413.684 31.5846 413.902 31.5279 414.161 31.5158C414.421 31.5036 414.673 31.5684 414.919 31.7101C415.164 31.8518 415.283 31.9935 415.276 32.1353C415.269 32.277 415.164 32.4065 414.961 32.5239C414.785 32.6252 414.568 32.6818 414.309 32.694C414.049 32.7061 413.797 32.6414 413.551 32.4996ZM407.387 36.7023L406.303 36.0768L411.826 32.8883L412.909 33.5139L407.387 36.7023ZM412.492 36.4553C412.127 36.6658 411.882 36.9007 411.756 37.1598C411.644 37.4189 411.637 37.674 411.735 37.925C411.847 38.176 412.057 38.3906 412.366 38.5688C412.717 38.7712 413.113 38.8947 413.555 38.9393C413.996 38.9838 414.396 38.9959 414.754 38.9757L414.617 39.747C414.294 39.7794 413.933 39.7774 413.533 39.7409C413.141 39.7004 412.745 39.6255 412.345 39.5162C411.952 39.4028 411.594 39.253 411.272 39.0668C410.767 38.7753 410.437 38.4392 410.283 38.0586C410.129 37.678 410.15 37.2934 410.346 36.9047C410.55 36.5201 410.921 36.1719 411.461 35.8601C412.008 35.5443 412.611 35.3297 413.271 35.2163C413.944 35.103 414.61 35.0908 415.269 35.1799C415.928 35.269 416.51 35.4593 417.015 35.7508C417.527 36.0464 417.878 36.3703 418.067 36.7225C418.264 37.0707 418.295 37.3966 418.162 37.7003L416.826 37.7793C416.903 37.5485 416.875 37.2974 416.742 37.0262C416.623 36.7549 416.423 36.5383 416.142 36.3763C415.813 36.186 415.43 36.0625 414.996 36.0059C414.568 35.9451 414.133 35.9532 413.691 36.0302C413.256 36.103 412.857 36.2447 412.492 36.4553ZM420.131 43.2219L420.12 43.2158C419.678 43.2117 419.177 43.1449 418.616 43.0154C418.055 42.8858 417.56 42.6975 417.133 42.4505C416.558 42.1185 416.168 41.7562 415.965 41.3634C415.776 40.9707 415.769 40.582 415.944 40.1974C416.126 39.8087 416.488 39.4585 417.028 39.1467C417.645 38.7904 418.3 38.5616 418.995 38.4604C419.696 38.3551 420.376 38.3592 421.035 38.4726C421.702 38.5819 422.287 38.7823 422.792 39.0738C423.255 39.341 423.56 39.6508 423.707 40.003C423.861 40.3512 423.851 40.7055 423.676 41.0658C423.5 41.4262 423.146 41.7602 422.613 42.0679L422.14 42.3291L417.911 39.8876C417.476 40.2115 417.283 40.5577 417.333 40.9262C417.396 41.2946 417.694 41.6327 418.227 41.9404C418.612 42.1631 418.995 42.3028 419.373 42.3594C419.759 42.4121 420.096 42.4445 420.383 42.4566L420.131 43.2219ZM421.793 39.6508C421.379 39.4119 420.92 39.2601 420.415 39.1953C419.917 39.1264 419.384 39.1993 418.816 39.4139L421.908 41.1995L421.982 41.1569C422.199 41.0071 422.329 40.8391 422.371 40.6529C422.42 40.4707 422.392 40.2925 422.287 40.1184C422.189 39.9403 422.024 39.7844 421.793 39.6508ZM428.083 43.9503C428.083 43.7235 428.019 43.5008 427.893 43.2822C427.774 43.0676 427.609 42.8996 427.399 42.7781C427.252 42.6931 427.087 42.6182 426.904 42.5534C426.729 42.4927 426.543 42.4623 426.347 42.4623C426.158 42.4583 425.972 42.5089 425.789 42.6141C425.544 42.764 425.477 42.932 425.589 43.1182C425.709 43.3085 425.891 43.5231 426.136 43.762C426.347 43.9725 426.529 44.1912 426.683 44.4179C426.845 44.6406 426.901 44.8673 426.852 45.0981C426.817 45.3289 426.599 45.5597 426.2 45.7905C425.856 45.9889 425.463 46.1022 425.021 46.1306C424.587 46.163 424.148 46.1285 423.707 46.0273C423.279 45.9261 422.897 45.7783 422.56 45.584C422.16 45.3532 421.834 45.0839 421.582 44.7762C421.343 44.4685 421.263 44.1345 421.34 43.7741L422.707 43.8349C422.679 44.0697 422.721 44.2924 422.833 44.5029C422.96 44.7135 423.198 44.92 423.549 45.1224C423.682 45.1993 423.836 45.2641 424.012 45.3167C424.194 45.3653 424.38 45.3876 424.569 45.3836C424.773 45.3795 424.962 45.3269 425.137 45.2257C425.305 45.1285 425.383 45.0232 425.369 44.9098C425.369 44.7965 425.312 44.675 425.2 44.5454C425.095 44.4118 424.965 44.2721 424.811 44.1264C424.594 43.9037 424.397 43.6729 424.222 43.434C424.061 43.1952 423.994 42.9542 424.022 42.7113C424.064 42.4684 424.282 42.2336 424.674 42.0068C425.004 41.8165 425.376 41.7072 425.789 41.6789C426.217 41.6505 426.645 41.687 427.073 41.7882C427.507 41.8854 427.897 42.0331 428.24 42.2315C428.57 42.4218 428.857 42.6688 429.103 42.9725C429.348 43.2761 429.443 43.5899 429.387 43.9138L428.083 43.9503Z" fill="#333333"/>
<path d="M346.526 49.8797C346.084 50.1348 345.54 50.2947 344.895 50.3595C344.257 50.4283 343.636 50.3939 343.033 50.2562L341.792 52.9527L340.425 52.1511L341.634 49.655L339.951 48.6832L337.185 50.2805L336.049 49.6246L343.412 45.3733L346.547 47.1831C346.932 47.4058 347.206 47.6731 347.367 47.9848C347.536 48.3006 347.557 48.6245 347.43 48.9565C347.311 49.2926 347.01 49.6003 346.526 49.8797ZM345.263 47.7054L343.454 46.6608L341.045 48.0516L343.149 49.2663C343.486 49.4606 343.864 49.5416 344.285 49.5092C344.713 49.4809 345.078 49.3796 345.379 49.2055C345.765 48.9829 345.933 48.7318 345.884 48.4525C345.842 48.169 345.635 47.92 345.263 47.7054ZM348.354 55.8909L348.343 55.8848C347.901 55.8808 347.4 55.814 346.839 55.6844C346.278 55.5548 345.784 55.3666 345.356 55.1196C344.781 54.7876 344.392 54.4252 344.188 54.0325C343.999 53.6397 343.992 53.251 344.167 52.8664C344.349 52.4777 344.711 52.1275 345.251 51.8157C345.868 51.4594 346.523 51.2307 347.218 51.1294C347.919 51.0242 348.599 51.0282 349.258 51.1416C349.925 51.2509 350.51 51.4513 351.015 51.7428C351.478 52.0101 351.783 52.3198 351.93 52.672C352.085 53.0202 352.074 53.3745 351.899 53.7349C351.723 54.0952 351.369 54.4292 350.836 54.737L350.363 54.9981L346.134 52.5567C345.699 52.8806 345.507 53.2267 345.556 53.5952C345.619 53.9636 345.917 54.3017 346.45 54.6094C346.836 54.8321 347.218 54.9718 347.596 55.0285C347.982 55.0811 348.319 55.1135 348.606 55.1256L348.354 55.8909ZM350.016 52.3198C349.602 52.0809 349.143 51.9291 348.638 51.8643C348.14 51.7955 347.607 51.8684 347.039 52.0829L350.132 53.8685L350.205 53.826C350.423 53.6762 350.552 53.5081 350.594 53.3219C350.643 53.1397 350.615 52.9615 350.51 52.7874C350.412 52.6093 350.247 52.4534 350.016 52.3198ZM348.838 58.0654C348.887 58.28 349.021 58.5068 349.238 58.7456C349.455 58.9845 349.715 59.191 350.016 59.3651C350.584 59.6931 351.159 59.8631 351.742 59.8753C352.317 59.8915 352.881 59.7396 353.435 59.4198L354.108 59.0311C353.842 59.0716 353.54 59.0837 353.204 59.0675C352.874 59.0473 352.537 58.9946 352.194 58.9096C351.857 58.8205 351.556 58.6991 351.289 58.5452C350.777 58.2497 350.437 57.9116 350.269 57.531C350.101 57.1504 350.111 56.7637 350.3 56.371C350.497 55.9823 350.872 55.628 351.426 55.3082C351.987 54.9843 352.601 54.7677 353.267 54.6583C353.94 54.545 354.603 54.5348 355.255 54.628C355.914 54.7251 356.496 54.9195 357.001 55.211C357.422 55.4539 357.699 55.7232 357.832 56.0187C357.979 56.3143 358.029 56.5734 357.979 56.7961L358.747 56.3528L359.831 56.9783L354.645 59.9724C353.986 60.353 353.323 60.5818 352.657 60.6587C351.99 60.7437 351.349 60.7134 350.732 60.5676C350.115 60.43 349.554 60.2154 349.049 59.9239C348.656 59.6971 348.326 59.4339 348.06 59.1343C347.793 58.8428 347.639 58.5715 347.597 58.3205L348.838 58.0654ZM356.16 55.8669C355.823 55.6726 355.437 55.5471 355.002 55.4904C354.582 55.4337 354.15 55.4438 353.709 55.5207C353.281 55.5977 352.888 55.7394 352.53 55.9459C352.173 56.1524 351.927 56.3791 351.794 56.6261C351.668 56.8771 351.65 57.1261 351.742 57.3731C351.847 57.6201 352.068 57.8407 352.404 58.0351C352.755 58.2375 353.141 58.3671 353.561 58.4238C353.989 58.4845 354.417 58.4764 354.845 58.3995C355.279 58.3185 355.676 58.1748 356.033 57.9683C356.398 57.7577 356.647 57.529 356.78 57.282C356.913 57.035 356.927 56.788 356.822 56.541C356.731 56.2941 356.51 56.0694 356.16 55.8669ZM361.71 61.9013L365.034 59.9822L366.117 60.6077L360.595 63.7962L359.511 63.1706L360.395 62.6605C359.974 62.7172 359.504 62.7131 358.985 62.6483C358.48 62.5836 358.01 62.4256 357.575 62.1746C357 61.8426 356.73 61.46 356.766 61.0268C356.801 60.5935 357.165 60.1765 357.86 59.7757L361.268 57.8079L362.351 58.4335L359.238 60.2312C358.957 60.3931 358.74 60.5672 358.585 60.7535C358.438 60.9438 358.385 61.1361 358.428 61.3304C358.484 61.5248 358.662 61.709 358.964 61.8831C359.343 62.1017 359.788 62.2212 360.3 62.2414C360.812 62.2617 361.282 62.1483 361.71 61.9013ZM362.114 64.6736L369.898 60.1794L370.982 60.8049L363.198 65.2991L362.114 64.6736ZM375.308 65.9139L369.785 69.1024L368.691 68.4708L369.543 67.9789C369.143 68.0153 368.677 67.9971 368.144 67.9242C367.611 67.8513 367.127 67.6894 366.693 67.4383C366.23 67.1711 365.928 66.8553 365.788 66.4909C365.655 66.1306 365.693 65.7601 365.904 65.3795C366.114 64.9989 366.5 64.6467 367.061 64.3228C367.622 63.9988 368.232 63.7802 368.891 63.6668C369.557 63.5494 370.213 63.5393 370.858 63.6365C371.51 63.7296 372.096 63.926 372.615 64.2256C373.001 64.4483 373.253 64.6912 373.372 64.9544C373.498 65.2216 373.537 65.4706 373.488 65.7014L374.214 65.2823L375.308 65.9139ZM367.944 67.0071C368.281 67.2015 368.656 67.325 369.07 67.3776C369.491 67.4262 369.911 67.41 370.332 67.329C370.76 67.244 371.153 67.0982 371.51 66.8917C371.861 66.6893 372.106 66.4666 372.247 66.2237C372.387 65.9808 372.411 65.7398 372.32 65.501C372.236 65.258 372.026 65.0394 371.689 64.8451C371.367 64.6588 370.998 64.5394 370.585 64.4867C370.171 64.4341 369.754 64.4483 369.333 64.5292C368.912 64.6102 368.523 64.754 368.165 64.9604C367.808 65.1669 367.555 65.3937 367.408 65.6406C367.268 65.8836 367.24 66.1265 367.324 66.3694C367.415 66.6083 367.622 66.8209 367.944 67.0071ZM378.746 69.247C378.71 69.1863 378.651 69.1195 378.567 69.0466C378.497 68.9737 378.405 68.9049 378.293 68.8401C378.069 68.7106 377.788 68.6174 377.452 68.5608C377.122 68.5 376.775 68.4899 376.41 68.5304C376.06 68.5709 375.737 68.6761 375.443 68.8462L372.392 70.6074L371.298 69.9758L376.821 66.7874L377.915 67.419L376.873 68.0202C377.364 67.915 377.872 67.8886 378.398 67.9413C378.931 67.998 379.37 68.1255 379.713 68.3239C379.973 68.4737 380.138 68.6093 380.208 68.7308L378.746 69.247Z" fill="#333333"/>
<path d="M443.471 109.313C443.078 109.539 442.608 109.681 442.061 109.738C441.521 109.799 440.964 109.776 440.389 109.671C439.828 109.566 439.312 109.377 438.843 109.106C438.38 108.839 438.054 108.541 437.864 108.213C437.689 107.885 437.65 107.564 437.749 107.248C437.854 106.936 438.103 106.667 438.495 106.44C438.958 106.173 439.449 106.023 439.968 105.991C440.501 105.958 440.999 105.982 441.462 106.063C441.329 105.841 441.283 105.604 441.325 105.353C441.367 105.102 441.567 104.873 441.925 104.667C442.289 104.456 442.724 104.322 443.229 104.266C443.741 104.205 444.263 104.223 444.796 104.32C445.329 104.418 445.81 104.59 446.238 104.837C446.672 105.088 446.97 105.365 447.132 105.669C447.3 105.976 447.332 106.278 447.226 106.574C447.128 106.865 446.897 107.116 446.532 107.327C446.273 107.476 445.996 107.576 445.701 107.624C445.421 107.673 445.14 107.689 444.859 107.673C444.579 107.657 444.32 107.624 444.081 107.576C444.249 107.892 444.281 108.205 444.176 108.517C444.078 108.833 443.843 109.098 443.471 109.313ZM443.019 105.335C442.738 105.497 442.622 105.697 442.671 105.936C442.721 106.175 442.906 106.387 443.229 106.574C443.559 106.764 443.927 106.871 444.334 106.895C444.747 106.924 445.094 106.857 445.375 106.695C445.648 106.537 445.768 106.339 445.733 106.1C445.712 105.861 445.529 105.642 445.186 105.444C444.842 105.246 444.46 105.138 444.039 105.122C443.632 105.106 443.292 105.177 443.019 105.335ZM439.894 108.499C440.287 108.726 440.722 108.851 441.199 108.875C441.676 108.9 442.072 108.821 442.387 108.639C442.745 108.432 442.899 108.189 442.85 107.91C442.808 107.626 442.598 107.375 442.219 107.157C441.847 106.942 441.416 106.823 440.925 106.798C440.441 106.77 440.021 106.859 439.663 107.066C439.347 107.248 439.211 107.476 439.253 107.752C439.295 108.027 439.509 108.276 439.894 108.499ZM445.008 112.751C444.419 112.411 444.082 112.03 443.998 111.609C443.928 111.188 444.075 110.755 444.44 110.309C444.804 109.864 445.355 109.429 446.091 109.004C446.828 108.578 447.582 108.261 448.353 108.05C449.124 107.839 449.871 107.756 450.594 107.801C451.33 107.846 451.993 108.038 452.582 108.378C453.178 108.722 453.511 109.105 453.581 109.526C453.658 109.943 453.514 110.374 453.15 110.819C452.792 111.269 452.245 111.706 451.509 112.131C450.772 112.556 450.015 112.872 449.237 113.079C448.465 113.289 447.715 113.374 446.985 113.334C446.263 113.289 445.604 113.095 445.008 112.751ZM446.039 112.156C446.544 112.447 447.175 112.536 447.932 112.423C448.697 112.313 449.521 112.004 450.404 111.494C451.288 110.983 451.824 110.508 452.014 110.066C452.21 109.629 452.056 109.265 451.551 108.973C451.046 108.682 450.411 108.591 449.647 108.7C448.889 108.813 448.069 109.125 447.185 109.635C446.302 110.145 445.762 110.619 445.565 111.056C445.376 111.498 445.534 111.864 446.039 112.156Z" fill="#333333"/>
<path d="M475.156 96.4741L466.74 96.4741L466.74 91.6155" stroke="#333333" stroke-width="1.21465" stroke-linecap="round" stroke-linejoin="round"/>
<g filter="url(#filter3_ddddd_187_98394)">
<rect width="199.021" height="81.737" rx="23.1402" transform="matrix(0.866025 0.5 -0.866025 0.5 256.762 82.995)" fill="url(#paint5_radial_187_98394)"/>
</g>
<g filter="url(#filter4_i_187_98394)">
<path d="M206.016 135.434C199.581 131.718 196.887 126.661 197.935 121.822C198.69 125.305 201.383 128.675 206.016 131.35L338.294 207.721C349.361 214.111 367.306 214.111 378.374 207.721L409.08 189.992C413.713 187.318 416.406 183.947 417.161 180.464C418.209 185.303 415.515 190.36 409.08 194.076L378.374 211.804C367.306 218.194 349.362 218.194 338.294 211.804L206.016 135.434Z" fill="url(#paint6_linear_187_98394)"/>
</g>
<rect x="-2.43399e-08" y="0.408356" width="198.205" height="80.9203" rx="22.7318" transform="matrix(0.866025 0.5 -0.866025 0.5 257.116 79.1156)" fill="url(#paint7_linear_187_98394)" fill-opacity="0.9" stroke="url(#paint8_linear_187_98394)" stroke-width="0.816712"/>
<path d="M263.129 131.16L274.37 124.67L270.673 122.535L272.635 121.403L282.179 126.913L280.217 128.045L276.407 125.846L265.166 132.336L263.129 131.16ZM278.926 138.778L278.907 138.767C278.115 138.759 277.216 138.64 276.21 138.407C275.204 138.175 274.318 137.837 273.551 137.395C272.52 136.799 271.822 136.15 271.457 135.445C271.118 134.741 271.105 134.044 271.419 133.355C271.746 132.658 272.394 132.03 273.362 131.471C274.469 130.832 275.644 130.422 276.889 130.24C278.147 130.051 279.366 130.059 280.548 130.262C281.743 130.458 282.793 130.817 283.698 131.34C284.528 131.819 285.075 132.375 285.339 133.006C285.616 133.63 285.597 134.266 285.282 134.912C284.968 135.558 284.333 136.157 283.377 136.709L282.529 137.177L274.946 132.799C274.167 133.38 273.821 134.001 273.909 134.661C274.022 135.322 274.557 135.928 275.512 136.48C276.204 136.879 276.889 137.13 277.568 137.231C278.26 137.326 278.863 137.384 279.379 137.405L278.926 138.778ZM281.906 132.375C281.164 131.946 280.341 131.674 279.435 131.558C278.543 131.434 277.587 131.565 276.568 131.95L282.114 135.151L282.246 135.075C282.635 134.807 282.868 134.505 282.944 134.171C283.032 133.845 282.981 133.525 282.793 133.213C282.617 132.894 282.321 132.614 281.906 132.375ZM280.17 140.998L294.127 132.94L296.07 134.062L282.112 142.12L280.17 140.998ZM294.509 147.774L294.49 147.763C293.698 147.756 292.799 147.636 291.793 147.404C290.787 147.172 289.9 146.834 289.133 146.391C288.102 145.796 287.404 145.146 287.04 144.442C286.7 143.738 286.688 143.041 287.002 142.351C287.329 141.654 287.976 141.026 288.945 140.467C290.051 139.828 291.227 139.418 292.472 139.237C293.729 139.048 294.949 139.055 296.131 139.259C297.325 139.455 298.375 139.814 299.281 140.337C300.11 140.816 300.657 141.371 300.921 142.003C301.198 142.627 301.179 143.262 300.865 143.908C300.551 144.554 299.916 145.153 298.96 145.705L298.111 146.173L290.529 141.796C289.749 142.377 289.404 142.997 289.492 143.658C289.605 144.319 290.139 144.925 291.095 145.476C291.786 145.876 292.472 146.126 293.151 146.228C293.842 146.322 294.446 146.38 294.961 146.402L294.509 147.774ZM297.489 141.371C296.747 140.943 295.923 140.671 295.018 140.554C294.125 140.431 293.17 140.562 292.151 140.946L297.696 144.148L297.828 144.072C298.218 143.803 298.451 143.502 298.526 143.168C298.614 142.841 298.564 142.522 298.375 142.21C298.199 141.89 297.904 141.611 297.489 141.371ZM295.377 151.673C295.465 152.058 295.704 152.464 296.094 152.893C296.484 153.321 296.949 153.691 297.49 154.004C298.508 154.592 299.539 154.896 300.583 154.918C301.614 154.947 302.626 154.675 303.62 154.102L304.827 153.405C304.349 153.477 303.808 153.499 303.205 153.47C302.614 153.434 302.01 153.339 301.394 153.187C300.79 153.027 300.25 152.809 299.772 152.533C298.854 152.003 298.244 151.397 297.942 150.715C297.641 150.032 297.66 149.339 297.999 148.635C298.351 147.938 299.024 147.303 300.017 146.729C301.023 146.149 302.123 145.76 303.318 145.564C304.525 145.361 305.713 145.343 306.883 145.51C308.065 145.684 309.108 146.032 310.014 146.555C310.768 146.991 311.265 147.473 311.504 148.003C311.768 148.533 311.856 148.998 311.768 149.397L313.145 148.602L315.087 149.724L305.789 155.092C304.607 155.775 303.418 156.185 302.224 156.323C301.029 156.475 299.879 156.421 298.772 156.16C297.666 155.913 296.66 155.528 295.755 155.005C295.05 154.599 294.459 154.127 293.982 153.59C293.504 153.067 293.227 152.581 293.152 152.131L295.377 151.673ZM308.505 147.731C307.901 147.383 307.21 147.158 306.43 147.056C305.676 146.954 304.902 146.973 304.11 147.11C303.343 147.248 302.639 147.503 301.998 147.873C301.356 148.243 300.916 148.65 300.677 149.092C300.451 149.542 300.42 149.989 300.583 150.432C300.772 150.875 301.168 151.27 301.771 151.619C302.4 151.982 303.092 152.214 303.846 152.316C304.613 152.425 305.38 152.41 306.147 152.272C306.927 152.127 307.637 151.869 308.278 151.499C308.932 151.121 309.379 150.711 309.618 150.268C309.856 149.826 309.882 149.383 309.693 148.94C309.529 148.497 309.133 148.094 308.505 147.731ZM321.263 155.707C321.2 155.598 321.093 155.478 320.942 155.347C320.816 155.217 320.653 155.093 320.452 154.977C320.049 154.745 319.546 154.578 318.943 154.476C318.352 154.367 317.729 154.349 317.075 154.422C316.447 154.494 315.868 154.683 315.34 154.988L309.871 158.146L307.909 157.014L317.811 151.297L319.773 152.429L317.905 153.507C318.786 153.318 319.697 153.271 320.64 153.366C321.596 153.467 322.382 153.696 322.998 154.052C323.463 154.32 323.759 154.563 323.884 154.781L321.263 155.707ZM334.218 160.769L324.315 166.486L322.354 165.353L323.882 164.471C323.165 164.537 322.329 164.504 321.373 164.373C320.418 164.243 319.55 163.952 318.77 163.502C317.94 163.023 317.4 162.457 317.148 161.803C316.909 161.157 316.979 160.493 317.356 159.811C317.733 159.128 318.425 158.497 319.43 157.916C320.436 157.335 321.53 156.943 322.712 156.74C323.907 156.529 325.083 156.511 326.239 156.685C327.409 156.852 328.459 157.204 329.389 157.742C330.081 158.141 330.533 158.576 330.747 159.048C330.973 159.527 331.043 159.974 330.955 160.388L332.256 159.636L334.218 160.769ZM321.015 162.729C321.618 163.077 322.291 163.299 323.033 163.393C323.787 163.48 324.542 163.451 325.296 163.306C326.063 163.154 326.767 162.892 327.409 162.522C328.037 162.159 328.478 161.76 328.729 161.324C328.98 160.889 329.025 160.457 328.861 160.028C328.71 159.593 328.333 159.201 327.729 158.852C327.151 158.518 326.491 158.304 325.749 158.21C325.007 158.115 324.259 158.141 323.504 158.286C322.75 158.431 322.052 158.689 321.411 159.059C320.77 159.429 320.317 159.836 320.053 160.279C319.801 160.714 319.751 161.15 319.902 161.586C320.065 162.014 320.436 162.395 321.015 162.729ZM342.136 165.144C342.953 165.616 343.418 166.103 343.531 166.604C343.657 167.097 343.506 167.591 343.079 168.085C343.569 168.005 344.141 167.972 344.795 167.987C345.462 167.994 346.128 168.066 346.794 168.204C347.461 168.342 348.052 168.56 348.567 168.858C349.422 169.351 349.9 169.845 350.001 170.339C350.114 170.825 349.951 171.304 349.51 171.776C349.096 172.248 348.505 172.705 347.738 173.148L341.796 176.578L339.835 175.446L345.663 172.081C346.392 171.66 346.845 171.239 347.021 170.818C347.197 170.397 346.901 169.965 346.134 169.522C345.405 169.101 344.569 168.887 343.626 168.88C342.708 168.872 341.922 169.057 341.268 169.435L335.346 172.854L333.384 171.722L339.25 168.335C339.954 167.928 340.382 167.507 340.533 167.072C340.683 166.636 340.413 166.219 339.722 165.82C339.244 165.544 338.709 165.359 338.118 165.264C337.527 165.17 336.949 165.163 336.383 165.242C335.83 165.315 335.339 165.475 334.912 165.722L328.952 169.163L326.99 168.03L336.892 162.313L338.854 163.446L337.27 164.36C338.024 164.273 338.848 164.284 339.74 164.393C340.658 164.502 341.457 164.752 342.136 165.144Z" fill="white"/>
<g filter="url(#filter5_bdddddddd_187_98394)">
<rect width="245.202" height="63.1026" rx="17.666" transform="matrix(0.866025 0.5 -0.866025 0.5 60.6484 79)" fill="url(#paint9_linear_187_98394)" fill-opacity="0.65" shape-rendering="crispEdges"/>
<rect x="1.8582e-08" y="-0.311754" width="245.826" height="63.7261" rx="17.9778" transform="matrix(0.866025 0.5 -0.866025 0.5 60.3785 78.8441)" stroke="#EBEEF5" stroke-width="0.623508" shape-rendering="crispEdges"/>
</g>
<g clip-path="url(#clip1_187_98394)">
<path d="M157.105 160.84C159.292 159.577 162.838 159.577 165.025 160.84L171.675 164.68C173.862 165.942 173.862 167.989 171.675 169.252L165.025 173.091C162.838 174.354 159.292 174.354 157.105 173.091L150.455 169.252C148.268 167.989 148.268 165.942 150.455 164.68L157.105 160.84Z" fill="#333333"/>
<path d="M165.072 164.652C162.86 163.376 159.27 163.376 157.058 164.652C154.847 165.929 154.847 168.002 157.058 169.279L159.062 170.436L159.863 169.973L157.86 168.816C156.121 167.812 156.121 166.119 157.86 165.115C159.599 164.111 162.532 164.111 164.271 165.115C166.009 166.119 166.009 167.812 164.271 168.816L163.698 169.147C163.381 169.33 162.784 169.346 162.468 169.163C162.151 168.981 162.179 168.636 162.496 168.453L163.069 168.122C164.174 167.484 164.174 166.448 163.069 165.809C161.963 165.171 160.168 165.171 159.062 165.809C157.956 166.448 157.956 167.484 159.062 168.122C159.615 168.442 160.344 168.604 161.069 168.601C160.973 168.957 161.189 169.351 161.666 169.626C162.456 170.082 163.71 170.066 164.499 169.61L165.072 169.279C167.284 168.002 167.284 165.929 165.072 164.652ZM159.863 167.66C159.198 167.276 159.198 166.656 159.863 166.272C160.528 165.888 161.602 165.888 162.267 166.272C162.932 166.656 162.932 167.276 162.267 167.66C161.602 168.044 160.528 168.044 159.863 167.66Z" fill="white"/>
</g>
<g clip-path="url(#clip2_187_98394)">
<path d="M205.199 184.985C205.654 184.722 206.39 184.722 206.845 184.985L219.769 192.446C220.223 192.709 220.223 193.134 219.769 193.397L206.845 200.858C206.39 201.121 205.654 201.121 205.199 200.858L192.275 193.397C191.82 193.134 191.82 192.709 192.275 192.446L205.199 184.985Z" fill="#333333"/>
</g>
<path d="M212.351 192.894C212.331 192.762 212.15 192.641 211.868 192.571L211.868 192.571C211.572 192.497 203.317 190.57 202.98 190.492C202.922 190.476 202.409 190.339 202.14 190.54C201.896 190.72 202.083 190.96 202.106 190.989L203.08 192.128C202.856 192.37 202.029 193.264 201.855 193.457C201.746 193.577 201.62 193.743 201.719 193.85C201.796 193.949 201.963 193.996 202.106 194.006L203.833 194.049L204.165 195.536L204.18 195.568C204.235 195.65 204.308 195.717 204.398 195.77C204.468 195.81 204.548 195.841 204.638 195.863C204.944 195.938 205.237 195.869 205.269 195.861L211.941 193.263C212.306 193.13 212.365 192.989 212.351 192.894ZM204.18 192.993L202.372 193.464L203.514 192.23L210.111 192.822L204.18 192.993Z" fill="white"/>
<path d="M81.4552 115.057C81.4559 113.303 80.1511 111.664 77.8011 110.51C74.6423 108.957 70.0459 108.651 66.3831 109.776C63.7662 110.579 61.9312 111.936 61.2004 113.51L57.1167 114.776C56.7251 114.898 56.7163 115.22 57.1014 115.349L61.2667 116.738C61.7503 117.687 62.6423 118.555 63.861 119.259L63.8639 119.261C66.9236 121.028 71.622 121.579 75.4993 120.47C79.2788 119.388 81.453 117.319 81.4552 115.057ZM72.1158 118.613C71.5389 118.771 70.3858 118.579 70.0218 118.403C69.6572 118.228 69.2239 118.117 68.2926 116.879C67.1715 115.39 67.9002 113.62 67.9308 113.498C67.9614 113.375 68.1744 112.499 69.07 111.982C69.9657 111.465 70.8766 111.482 71.2253 111.474C71.5746 111.465 71.8168 111.553 71.9386 111.623C72.0597 111.693 72.1815 111.763 72.2828 111.827C72.4076 111.905 72.5447 111.991 72.3784 112.245C72.18 112.546 71.6337 113.27 71.5878 113.349C71.5418 113.428 71.466 113.507 71.2844 113.542C71.1027 113.577 70.9963 113.603 70.7993 113.612C70.6017 113.621 70.3712 113.639 70.2078 113.639C70.0262 113.638 69.8322 113.641 69.7564 113.807C69.6805 113.973 69.4493 114.528 69.5084 115.119C69.5842 115.879 69.9781 116.327 70.0685 116.486C70.1597 116.644 70.2808 116.696 70.5091 116.687C70.7366 116.679 71.4951 116.643 71.7985 116.608C72.102 116.572 72.1931 116.66 72.2996 116.792C72.4061 116.923 72.8605 117.694 72.9509 117.852C73.0421 118.01 73.1179 118.106 73.0873 118.176C73.0574 118.245 72.6927 118.456 72.1158 118.613Z" fill="#333333"/>
<path d="M126.733 142.8C127.428 142.086 127.658 141.335 127.412 140.569C127.104 139.601 126.205 138.802 125.367 138.149C124.206 137.244 123 136.514 121.68 135.918C120.441 135.359 119.395 135.004 118.288 134.768C116.12 134.304 114.124 134.427 112.357 135.133C111.498 135.476 110.753 135.803 110.076 136.135C108.509 136.902 107.336 137.704 106.491 138.586C105.667 139.446 105.421 140.259 105.742 141.071C105.824 141.279 106.005 141.499 106.181 141.712C106.269 141.819 106.352 141.922 106.416 142.017L104.079 143.367C103.773 143.544 103.773 143.83 104.079 144.006C104.223 144.09 104.418 144.137 104.622 144.138L108.877 144.173C109.078 144.165 109.078 144.165 109.177 144.22C109.929 144.637 110.71 145.055 111.499 145.464C112.455 145.959 113.593 146.515 114.995 146.848C116.279 147.152 117.54 147.187 118.741 146.952C119.995 146.706 121.151 146.323 122.274 145.78C124.249 144.827 125.708 143.852 126.733 142.8ZM116.076 144.616C115.505 144.696 114.936 144.65 114.395 144.521C114 144.428 113.739 144.249 113.581 144.023C112.25 142.127 111.98 140.194 112.996 138.227C113.205 137.822 113.53 137.436 113.814 137.045C113.873 136.964 113.992 136.899 114.083 136.826C114.878 136.387 115.912 136.479 116.648 136.75C116.929 136.854 117.052 137.019 117.059 137.212C117.08 137.746 116.931 138.264 116.626 138.765C116.491 138.985 116.208 139.084 115.806 139.074C115.724 139.072 115.641 139.067 115.559 139.06C114.72 138.991 114.377 139.108 114.09 139.568C113.602 140.352 113.704 141.126 114.253 141.886C114.397 142.087 114.679 142.191 115.067 142.185C115.118 142.184 115.173 142.186 115.222 142.179C116.204 142.037 116.676 142.38 116.818 142.867C116.913 143.186 116.984 143.508 117.07 143.828C117.198 144.316 116.858 144.507 116.076 144.616ZM119.664 139.348C119.54 139.277 119.405 139.21 119.263 139.152C119.021 139.053 118.966 138.86 119.138 138.721C119.31 138.582 119.644 138.549 119.886 138.649C120.074 138.727 120.255 138.815 120.421 138.911C122.06 139.857 122.06 141.398 120.421 142.344C120.254 142.44 120.074 142.528 119.884 142.606C119.668 142.695 119.377 142.678 119.195 142.573C119.175 142.562 119.155 142.549 119.138 142.534C118.967 142.395 119.023 142.202 119.263 142.103C119.404 142.045 119.538 141.979 119.663 141.907C120.886 141.201 120.886 140.054 119.664 139.348ZM118.852 141.72C118.644 141.84 118.305 141.84 118.096 141.72C117.887 141.6 117.887 141.404 118.096 141.283C118.722 140.922 118.722 140.334 118.096 139.973C117.887 139.852 117.887 139.656 118.096 139.536C118.305 139.415 118.644 139.415 118.852 139.536C119.895 140.137 119.895 141.118 118.852 141.72ZM120.938 143.457C120.722 143.536 120.448 143.514 120.274 143.414C120.246 143.398 120.221 143.38 120.199 143.36C120.042 143.216 120.117 143.025 120.366 142.934C120.663 142.827 120.941 142.698 121.191 142.554C123.031 141.492 123.031 139.763 121.191 138.7C120.94 138.555 120.663 138.428 120.366 138.32C120.117 138.23 120.041 138.038 120.199 137.894C120.357 137.749 120.688 137.706 120.937 137.798C121.302 137.929 121.642 138.087 121.949 138.264C124.206 139.567 124.206 141.688 121.949 142.991C121.642 143.168 121.302 143.325 120.938 143.457Z" fill="#333333"/>
</g>
<defs>
<filter id="filter0_dddddd_187_98394" x="482.789" y="113.327" width="170.49" height="120.988" filterUnits="userSpaceOnUse" color-interpolation-filters="sRGB">
<feFlood flood-opacity="0" result="BackgroundImageFix"/>
<feColorMatrix in="SourceAlpha" type="matrix" values="0 0 0 0 0 0 0 0 0 0 0 0 0 0 0 0 0 0 127 0" result="hardAlpha"/>
<feOffset dy="0.31491"/>
<feGaussianBlur stdDeviation="0.472013"/>
<feColorMatrix type="matrix" values="0 0 0 0 0 0 0 0 0 0 0 0 0 0 0 0 0 0 0.01 0"/>
<feBlend mode="normal" in2="BackgroundImageFix" result="effect1_dropShadow_187_98394"/>
<feColorMatrix in="SourceAlpha" type="matrix" values="0 0 0 0 0 0 0 0 0 0 0 0 0 0 0 0 0 0 127 0" result="hardAlpha"/>
<feOffset dy="1.3856"/>
<feGaussianBlur stdDeviation="0.977346"/>
<feColorMatrix type="matrix" values="0 0 0 0 0 0 0 0 0 0 0 0 0 0 0 0 0 0 0.02 0"/>
<feBlend mode="normal" in2="effect1_dropShadow_187_98394" result="effect2_dropShadow_187_98394"/>
<feColorMatrix in="SourceAlpha" type="matrix" values="0 0 0 0 0 0 0 0 0 0 0 0 0 0 0 0 0 0 127 0" result="hardAlpha"/>
<feOffset dy="3.40103"/>
<feGaussianBlur stdDeviation="1.94914"/>
<feColorMatrix type="matrix" values="0 0 0 0 0 0 0 0 0 0 0 0 0 0 0 0 0 0 0.03 0"/>
<feBlend mode="normal" in2="effect2_dropShadow_187_98394" result="effect3_dropShadow_187_98394"/>
<feColorMatrix in="SourceAlpha" type="matrix" values="0 0 0 0 0 0 0 0 0 0 0 0 0 0 0 0 0 0 127 0" result="hardAlpha"/>
<feOffset dy="6.55013"/>
<feGaussianBlur stdDeviation="3.82053"/>
<feColorMatrix type="matrix" values="0 0 0 0 0 0 0 0 0 0 0 0 0 0 0 0 0 0 0.04 0"/>
<feBlend mode="normal" in2="effect3_dropShadow_187_98394" result="effect4_dropShadow_187_98394"/>
<feColorMatrix in="SourceAlpha" type="matrix" values="0 0 0 0 0 0 0 0 0 0 0 0 0 0 0 0 0 0 127 0" result="hardAlpha"/>
<feOffset dy="11.0218"/>
<feGaussianBlur stdDeviation="7.02467"/>
<feColorMatrix type="matrix" values="0 0 0 0 0 0 0 0 0 0 0 0 0 0 0 0 0 0 0.05 0"/>
<feBlend mode="normal" in2="effect4_dropShadow_187_98394" result="effect5_dropShadow_187_98394"/>
<feColorMatrix in="SourceAlpha" type="matrix" values="0 0 0 0 0 0 0 0 0 0 0 0 0 0 0 0 0 0 127 0" result="hardAlpha"/>
<feOffset dy="17.0051"/>
<feGaussianBlur stdDeviation="11.9947"/>
<feColorMatrix type="matrix" values="0 0 0 0 0 0 0 0 0 0 0 0 0 0 0 0 0 0 0.07 0"/>
<feBlend mode="normal" in2="effect5_dropShadow_187_98394" result="effect6_dropShadow_187_98394"/>
<feBlend mode="normal" in="SourceGraphic" in2="effect6_dropShadow_187_98394" result="shape"/>
</filter>
<filter id="filter1_dddddd_187_98394" x="417.653" y="150.83" width="170.49" height="120.988" filterUnits="userSpaceOnUse" color-interpolation-filters="sRGB">
<feFlood flood-opacity="0" result="BackgroundImageFix"/>
<feColorMatrix in="SourceAlpha" type="matrix" values="0 0 0 0 0 0 0 0 0 0 0 0 0 0 0 0 0 0 127 0" result="hardAlpha"/>
<feOffset dy="0.31491"/>
<feGaussianBlur stdDeviation="0.472013"/>
<feColorMatrix type="matrix" values="0 0 0 0 0 0 0 0 0 0 0 0 0 0 0 0 0 0 0.01 0"/>
<feBlend mode="normal" in2="BackgroundImageFix" result="effect1_dropShadow_187_98394"/>
<feColorMatrix in="SourceAlpha" type="matrix" values="0 0 0 0 0 0 0 0 0 0 0 0 0 0 0 0 0 0 127 0" result="hardAlpha"/>
<feOffset dy="1.3856"/>
<feGaussianBlur stdDeviation="0.977346"/>
<feColorMatrix type="matrix" values="0 0 0 0 0 0 0 0 0 0 0 0 0 0 0 0 0 0 0.02 0"/>
<feBlend mode="normal" in2="effect1_dropShadow_187_98394" result="effect2_dropShadow_187_98394"/>
<feColorMatrix in="SourceAlpha" type="matrix" values="0 0 0 0 0 0 0 0 0 0 0 0 0 0 0 0 0 0 127 0" result="hardAlpha"/>
<feOffset dy="3.40103"/>
<feGaussianBlur stdDeviation="1.94914"/>
<feColorMatrix type="matrix" values="0 0 0 0 0 0 0 0 0 0 0 0 0 0 0 0 0 0 0.03 0"/>
<feBlend mode="normal" in2="effect2_dropShadow_187_98394" result="effect3_dropShadow_187_98394"/>
<feColorMatrix in="SourceAlpha" type="matrix" values="0 0 0 0 0 0 0 0 0 0 0 0 0 0 0 0 0 0 127 0" result="hardAlpha"/>
<feOffset dy="6.55013"/>
<feGaussianBlur stdDeviation="3.82053"/>
<feColorMatrix type="matrix" values="0 0 0 0 0 0 0 0 0 0 0 0 0 0 0 0 0 0 0.04 0"/>
<feBlend mode="normal" in2="effect3_dropShadow_187_98394" result="effect4_dropShadow_187_98394"/>
<feColorMatrix in="SourceAlpha" type="matrix" values="0 0 0 0 0 0 0 0 0 0 0 0 0 0 0 0 0 0 127 0" result="hardAlpha"/>
<feOffset dy="11.0218"/>
<feGaussianBlur stdDeviation="7.02467"/>
<feColorMatrix type="matrix" values="0 0 0 0 0 0 0 0 0 0 0 0 0 0 0 0 0 0 0.05 0"/>
<feBlend mode="normal" in2="effect4_dropShadow_187_98394" result="effect5_dropShadow_187_98394"/>
<feColorMatrix in="SourceAlpha" type="matrix" values="0 0 0 0 0 0 0 0 0 0 0 0 0 0 0 0 0 0 127 0" result="hardAlpha"/>
<feOffset dy="17.0051"/>
<feGaussianBlur stdDeviation="11.9947"/>
<feColorMatrix type="matrix" values="0 0 0 0 0 0 0 0 0 0 0 0 0 0 0 0 0 0 0.07 0"/>
<feBlend mode="normal" in2="effect5_dropShadow_187_98394" result="effect6_dropShadow_187_98394"/>
<feBlend mode="normal" in="SourceGraphic" in2="effect6_dropShadow_187_98394" result="shape"/>
</filter>
<filter id="filter2_bdddddddd_187_98394" x="239.843" y="-13.6991" width="358.077" height="266.03" filterUnits="userSpaceOnUse" color-interpolation-filters="sRGB">
<feFlood flood-opacity="0" result="BackgroundImageFix"/>
<feGaussianBlur in="BackgroundImageFix" stdDeviation="2.96072"/>
<feComposite in2="SourceAlpha" operator="in" result="effect1_backgroundBlur_187_98394"/>
<feColorMatrix in="SourceAlpha" type="matrix" values="0 0 0 0 0 0 0 0 0 0 0 0 0 0 0 0 0 0 127 0" result="hardAlpha"/>
<feOffset dy="30.6362"/>
<feGaussianBlur stdDeviation="1.38019"/>
<feColorMatrix type="matrix" values="0 0 0 0 0 0 0 0 0 0 0 0 0 0 0 0 0 0 0.0150289 0"/>
<feBlend mode="normal" in2="effect1_backgroundBlur_187_98394" result="effect2_dropShadow_187_98394"/>
<feColorMatrix in="SourceAlpha" type="matrix" values="0 0 0 0 0 0 0 0 0 0 0 0 0 0 0 0 0 0 127 0" result="hardAlpha"/>
<feOffset dy="32.0702"/>
<feGaussianBlur stdDeviation="2.85781"/>
<feColorMatrix type="matrix" values="0 0 0 0 0 0 0 0 0 0 0 0 0 0 0 0 0 0 0.0251481 0"/>
<feBlend mode="normal" in2="effect2_dropShadow_187_98394" result="effect3_dropShadow_187_98394"/>
<feColorMatrix in="SourceAlpha" type="matrix" values="0 0 0 0 0 0 0 0 0 0 0 0 0 0 0 0 0 0 127 0" result="hardAlpha"/>
<feOffset dy="34.7694"/>
<feGaussianBlur stdDeviation="5.69938"/>
<feColorMatrix type="matrix" values="0 0 0 0 0 0 0 0 0 0 0 0 0 0 0 0 0 0 0.0330313 0"/>
<feBlend mode="normal" in2="effect3_dropShadow_187_98394" result="effect4_dropShadow_187_98394"/>
<feColorMatrix in="SourceAlpha" type="matrix" values="0 0 0 0 0 0 0 0 0 0 0 0 0 0 0 0 0 0 127 0" result="hardAlpha"/>
<feOffset dy="38.987"/>
<feGaussianBlur stdDeviation="11.1714"/>
<feColorMatrix type="matrix" values="0 0 0 0 0 0 0 0 0 0 0 0 0 0 0 0 0 0 0.0413519 0"/>
<feBlend mode="normal" in2="effect4_dropShadow_187_98394" result="effect5_dropShadow_187_98394"/>
<feColorMatrix in="SourceAlpha" type="matrix" values="0 0 0 0 0 0 0 0 0 0 0 0 0 0 0 0 0 0 127 0" result="hardAlpha"/>
<feOffset dy="44.9759"/>
<feGaussianBlur stdDeviation="20.5405"/>
<feColorMatrix type="matrix" values="0 0 0 0 0 0 0 0 0 0 0 0 0 0 0 0 0 0 0.0527836 0"/>
<feBlend mode="normal" in2="effect5_dropShadow_187_98394" result="effect6_dropShadow_187_98394"/>
<feColorMatrix in="SourceAlpha" type="matrix" values="0 0 0 0 0 0 0 0 0 0 0 0 0 0 0 0 0 0 127 0" result="hardAlpha"/>
<feOffset dy="52.9892"/>
<feGaussianBlur stdDeviation="35.0731"/>
<feColorMatrix type="matrix" values="0 0 0 0 0 0 0 0 0 0 0 0 0 0 0 0 0 0 0.07 0"/>
<feBlend mode="normal" in2="effect6_dropShadow_187_98394" result="effect7_dropShadow_187_98394"/>
<feColorMatrix in="SourceAlpha" type="matrix" values="0 0 0 0 0 0 0 0 0 0 0 0 0 0 0 0 0 0 127 0" result="hardAlpha"/>
<feOffset dy="1.36648"/>
<feGaussianBlur stdDeviation="0.0759158"/>
<feComposite in2="hardAlpha" operator="out"/>
<feColorMatrix type="matrix" values="0 0 0 0 1 0 0 0 0 1 0 0 0 0 1 0 0 0 1 0"/>
<feBlend mode="normal" in2="effect7_dropShadow_187_98394" result="effect8_dropShadow_187_98394"/>
<feColorMatrix in="SourceAlpha" type="matrix" values="0 0 0 0 0 0 0 0 0 0 0 0 0 0 0 0 0 0 127 0" result="hardAlpha"/>
<feOffset dy="1.21465"/>
<feGaussianBlur stdDeviation="0.227747"/>
<feComposite in2="hardAlpha" operator="out"/>
<feColorMatrix type="matrix" values="0 0 0 0 0.85098 0 0 0 0 0.858824 0 0 0 0 0.878431 0 0 0 1 0"/>
<feBlend mode="normal" in2="effect8_dropShadow_187_98394" result="effect9_dropShadow_187_98394"/>
<feBlend mode="normal" in="SourceGraphic" in2="effect9_dropShadow_187_98394" result="shape"/>
</filter>
<filter id="filter3_ddddd_187_98394" x="172.524" y="84.3442" width="270.047" height="177.206" filterUnits="userSpaceOnUse" color-interpolation-filters="sRGB">
<feFlood flood-opacity="0" result="BackgroundImageFix"/>
<feColorMatrix in="SourceAlpha" type="matrix" values="0 0 0 0 0 0 0 0 0 0 0 0 0 0 0 0 0 0 127 0" result="hardAlpha"/>
<feOffset dy="0.56464"/>
<feGaussianBlur stdDeviation="0.84633"/>
<feColorMatrix type="matrix" values="0 0 0 0 0.0862745 0 0 0 0 0.337255 0 0 0 0 0.878431 0 0 0 0.156481 0"/>
<feBlend mode="normal" in2="BackgroundImageFix" result="effect1_dropShadow_187_98394"/>
<feColorMatrix in="SourceAlpha" type="matrix" values="0 0 0 0 0 0 0 0 0 0 0 0 0 0 0 0 0 0 127 0" result="hardAlpha"/>
<feOffset dy="2.48442"/>
<feGaussianBlur stdDeviation="1.7524"/>
<feColorMatrix type="matrix" values="0 0 0 0 0.0862745 0 0 0 0 0.337255 0 0 0 0 0.878431 0 0 0 0.255185 0"/>
<feBlend mode="normal" in2="effect1_dropShadow_187_98394" result="effect2_dropShadow_187_98394"/>
<feColorMatrix in="SourceAlpha" type="matrix" values="0 0 0 0 0 0 0 0 0 0 0 0 0 0 0 0 0 0 127 0" result="hardAlpha"/>
<feOffset dy="6.09812"/>
<feGaussianBlur stdDeviation="3.49485"/>
<feColorMatrix type="matrix" values="0 0 0 0 0.0862745 0 0 0 0 0.337255 0 0 0 0 0.878431 0 0 0 0.325 0"/>
<feBlend mode="normal" in2="effect2_dropShadow_187_98394" result="effect3_dropShadow_187_98394"/>
<feColorMatrix in="SourceAlpha" type="matrix" values="0 0 0 0 0 0 0 0 0 0 0 0 0 0 0 0 0 0 127 0" result="hardAlpha"/>
<feOffset dy="11.7445"/>
<feGaussianBlur stdDeviation="6.8503"/>
<feColorMatrix type="matrix" values="0 0 0 0 0.0862745 0 0 0 0 0.337255 0 0 0 0 0.878431 0 0 0 0.394815 0"/>
<feBlend mode="normal" in2="effect3_dropShadow_187_98394" result="effect4_dropShadow_187_98394"/>
<feColorMatrix in="SourceAlpha" type="matrix" values="0 0 0 0 0 0 0 0 0 0 0 0 0 0 0 0 0 0 127 0" result="hardAlpha"/>
<feOffset dy="19.7624"/>
<feGaussianBlur stdDeviation="12.5954"/>
<feColorMatrix type="matrix" values="0 0 0 0 0.0862745 0 0 0 0 0.337255 0 0 0 0 0.878431 0 0 0 0.33 0"/>
<feBlend mode="normal" in2="effect4_dropShadow_187_98394" result="effect5_dropShadow_187_98394"/>
<feBlend mode="normal" in="SourceGraphic" in2="effect5_dropShadow_187_98394" result="shape"/>
</filter>
<filter id="filter4_i_187_98394" x="197.715" y="121.822" width="219.666" height="96.1361" filterUnits="userSpaceOnUse" color-interpolation-filters="sRGB">
<feFlood flood-opacity="0" result="BackgroundImageFix"/>
<feBlend mode="normal" in="SourceGraphic" in2="BackgroundImageFix" result="shape"/>
<feColorMatrix in="SourceAlpha" type="matrix" values="0 0 0 0 0 0 0 0 0 0 0 0 0 0 0 0 0 0 127 0" result="hardAlpha"/>
<feOffset dy="1.36119"/>
<feGaussianBlur stdDeviation="2.04178"/>
<feComposite in2="hardAlpha" operator="arithmetic" k2="-1" k3="1"/>
<feColorMatrix type="matrix" values="0 0 0 0 0.0901961 0 0 0 0 0.321569 0 0 0 0 1 0 0 0 1 0"/>
<feBlend mode="normal" in2="shape" result="effect1_innerShadow_187_98394"/>
</filter>
<filter id="filter5_bdddddddd_187_98394" x="-81.8217" y="60.2479" width="442.643" height="336.726" filterUnits="userSpaceOnUse" color-interpolation-filters="sRGB">
<feFlood flood-opacity="0" result="BackgroundImageFix"/>
<feGaussianBlur in="BackgroundImageFix" stdDeviation="4.0528"/>
<feComposite in2="SourceAlpha" operator="in" result="effect1_backgroundBlur_187_98394"/>
<feColorMatrix in="SourceAlpha" type="matrix" values="0 0 0 0 0 0 0 0 0 0 0 0 0 0 0 0 0 0 127 0" result="hardAlpha"/>
<feOffset dy="41.9367"/>
<feGaussianBlur stdDeviation="1.88929"/>
<feColorMatrix type="matrix" values="0 0 0 0 0 0 0 0 0 0 0 0 0 0 0 0 0 0 0.0150289 0"/>
<feBlend mode="normal" in2="effect1_backgroundBlur_187_98394" result="effect2_dropShadow_187_98394"/>
<feColorMatrix in="SourceAlpha" type="matrix" values="0 0 0 0 0 0 0 0 0 0 0 0 0 0 0 0 0 0 127 0" result="hardAlpha"/>
<feOffset dy="43.8996"/>
<feGaussianBlur stdDeviation="3.91193"/>
<feColorMatrix type="matrix" values="0 0 0 0 0 0 0 0 0 0 0 0 0 0 0 0 0 0 0.0251481 0"/>
<feBlend mode="normal" in2="effect2_dropShadow_187_98394" result="effect3_dropShadow_187_98394"/>
<feColorMatrix in="SourceAlpha" type="matrix" values="0 0 0 0 0 0 0 0 0 0 0 0 0 0 0 0 0 0 127 0" result="hardAlpha"/>
<feOffset dy="47.5944"/>
<feGaussianBlur stdDeviation="7.80164"/>
<feColorMatrix type="matrix" values="0 0 0 0 0 0 0 0 0 0 0 0 0 0 0 0 0 0 0.0330313 0"/>
<feBlend mode="normal" in2="effect3_dropShadow_187_98394" result="effect4_dropShadow_187_98394"/>
<feColorMatrix in="SourceAlpha" type="matrix" values="0 0 0 0 0 0 0 0 0 0 0 0 0 0 0 0 0 0 127 0" result="hardAlpha"/>
<feOffset dy="53.3676"/>
<feGaussianBlur stdDeviation="15.2921"/>
<feColorMatrix type="matrix" values="0 0 0 0 0 0 0 0 0 0 0 0 0 0 0 0 0 0 0.0413519 0"/>
<feBlend mode="normal" in2="effect4_dropShadow_187_98394" result="effect5_dropShadow_187_98394"/>
<feColorMatrix in="SourceAlpha" type="matrix" values="0 0 0 0 0 0 0 0 0 0 0 0 0 0 0 0 0 0 127 0" result="hardAlpha"/>
<feOffset dy="61.5656"/>
<feGaussianBlur stdDeviation="28.117"/>
<feColorMatrix type="matrix" values="0 0 0 0 0 0 0 0 0 0 0 0 0 0 0 0 0 0 0.0527836 0"/>
<feBlend mode="normal" in2="effect5_dropShadow_187_98394" result="effect6_dropShadow_187_98394"/>
<feColorMatrix in="SourceAlpha" type="matrix" values="0 0 0 0 0 0 0 0 0 0 0 0 0 0 0 0 0 0 127 0" result="hardAlpha"/>
<feOffset dy="72.5347"/>
<feGaussianBlur stdDeviation="48.0101"/>
<feColorMatrix type="matrix" values="0 0 0 0 0 0 0 0 0 0 0 0 0 0 0 0 0 0 0.07 0"/>
<feBlend mode="normal" in2="effect6_dropShadow_187_98394" result="effect7_dropShadow_187_98394"/>
<feColorMatrix in="SourceAlpha" type="matrix" values="0 0 0 0 0 0 0 0 0 0 0 0 0 0 0 0 0 0 127 0" result="hardAlpha"/>
<feOffset dy="1.87052"/>
<feGaussianBlur stdDeviation="0.103918"/>
<feComposite in2="hardAlpha" operator="out"/>
<feColorMatrix type="matrix" values="0 0 0 0 1 0 0 0 0 1 0 0 0 0 1 0 0 0 1 0"/>
<feBlend mode="normal" in2="effect7_dropShadow_187_98394" result="effect8_dropShadow_187_98394"/>
<feColorMatrix in="SourceAlpha" type="matrix" values="0 0 0 0 0 0 0 0 0 0 0 0 0 0 0 0 0 0 127 0" result="hardAlpha"/>
<feOffset dy="1.66269"/>
<feGaussianBlur stdDeviation="0.311754"/>
<feComposite in2="hardAlpha" operator="out"/>
<feColorMatrix type="matrix" values="0 0 0 0 0.85098 0 0 0 0 0.858824 0 0 0 0 0.878431 0 0 0 1 0"/>
<feBlend mode="normal" in2="effect8_dropShadow_187_98394" result="effect9_dropShadow_187_98394"/>
<feBlend mode="normal" in="SourceGraphic" in2="effect9_dropShadow_187_98394" result="shape"/>
</filter>
<linearGradient id="paint0_linear_187_98394" x1="501.37" y1="123.747" x2="646.442" y2="148.257" gradientUnits="userSpaceOnUse">
<stop stop-color="#D7D7D7"/>
<stop offset="1" stop-color="#E7E7E7"/>
</linearGradient>
<linearGradient id="paint1_linear_187_98394" x1="560.328" y1="119.016" x2="601.231" y2="160.911" gradientUnits="userSpaceOnUse">
<stop stop-color="#E0E2E8"/>
<stop offset="1" stop-color="#CDD0D6"/>
</linearGradient>
<linearGradient id="paint2_linear_187_98394" x1="436.234" y1="161.249" x2="581.307" y2="185.76" gradientUnits="userSpaceOnUse">
<stop stop-color="#D7D7D7"/>
<stop offset="1" stop-color="#E7E7E7"/>
</linearGradient>
<linearGradient id="paint3_linear_187_98394" x1="495.193" y1="156.519" x2="536.095" y2="198.414" gradientUnits="userSpaceOnUse">
<stop stop-color="#E0E2E8"/>
<stop offset="1" stop-color="#CDD0D6"/>
</linearGradient>
<linearGradient id="paint4_linear_187_98394" x1="72.516" y1="-1.76349" x2="128.212" y2="54.9758" gradientUnits="userSpaceOnUse">
<stop stop-color="#E0E2E8"/>
<stop offset="1" stop-color="#CDD0D6"/>
</linearGradient>
<radialGradient id="paint5_radial_187_98394" cx="0" cy="0" r="1" gradientUnits="userSpaceOnUse" gradientTransform="translate(99.5107 40.8685) rotate(92.2082) scale(27.8654 70.465)">
<stop stop-color="#0E74E8"/>
<stop offset="1" stop-color="white"/>
</radialGradient>
<linearGradient id="paint6_linear_187_98394" x1="313.675" y1="85.3073" x2="312.995" y2="225.101" gradientUnits="userSpaceOnUse">
<stop stop-color="#580565"/>
<stop offset="0.604167" stop-color="#3E97FF"/>
</linearGradient>
<linearGradient id="paint7_linear_187_98394" x1="91.5745" y1="-25.6966" x2="113.501" y2="94.9906" gradientUnits="userSpaceOnUse">
<stop stop-color="#4BFD67"/>
<stop offset="1" stop-color="#6D14FF"/>
</linearGradient>
<linearGradient id="paint8_linear_187_98394" x1="23.7196" y1="-23.4508" x2="162.508" y2="-26.2235" gradientUnits="userSpaceOnUse">
<stop stop-color="#F1E9FF"/>
<stop offset="1" stop-color="#9866EB"/>
</linearGradient>
<linearGradient id="paint9_linear_187_98394" x1="107.179" y1="-1.11946" x2="132.496" y2="58.9308" gradientUnits="userSpaceOnUse">
<stop stop-color="#E0E2E8"/>
<stop offset="1" stop-color="#CDD0D6"/>
</linearGradient>
<clipPath id="clip0_187_98394">
<rect width="636" height="246" fill="white"/>
</clipPath>
<clipPath id="clip1_187_98394">
<rect width="16.8239" height="16.8239" fill="white" transform="matrix(0.866025 0.5 -0.866025 0.5 161.065 158.554)"/>
</clipPath>
<clipPath id="clip2_187_98394">
<rect width="16.8239" height="16.8239" fill="white" transform="matrix(0.866025 0.5 -0.866025 0.5 206.022 184.51)"/>
</clipPath>
</defs>
</svg>
